<svg width="28" height="27" viewBox="0 0 28 27" fill="none" xmlns="http://www.w3.org/2000/svg">
<path fill-rule="evenodd" clip-rule="evenodd" d="M0.5 13.5C0.5 6.04395 6.54395 0 14 0C21.4561 0 27.5 6.04395 27.5 13.5C27.5 20.9561 21.4561 27 14 27C6.54395 27 0.5 20.9561 0.5 13.5ZM15.35 6.75C15.35 6.39196 15.2078 6.04858 14.9546 5.79541C14.7014 5.54223 14.358 5.4 14 5.4C13.642 5.4 13.2986 5.54223 13.0454 5.79541C12.7922 6.04858 12.65 6.39196 12.65 6.75V11.8314C12.65 12.5834 12.8594 13.3206 13.2548 13.9603C13.6501 14.6 14.2157 15.117 14.8883 15.4534L18.7966 17.4069C18.9557 17.4927 19.1304 17.5457 19.3104 17.5627C19.4904 17.5797 19.672 17.5603 19.8444 17.5058C20.0168 17.4513 20.1764 17.3627 20.3139 17.2453C20.4514 17.1279 20.5639 16.9841 20.6448 16.8224C20.7256 16.6607 20.7732 16.4844 20.7846 16.3039C20.796 16.1235 20.7711 15.9426 20.7113 15.772C20.6515 15.6014 20.558 15.4445 20.4364 15.3107C20.3148 15.1769 20.1676 15.0689 20.0035 14.9931L16.0966 13.0383C15.8723 12.9263 15.6837 12.754 15.5519 12.5409C15.42 12.3277 15.3501 12.082 15.35 11.8314V6.75Z" fill="#5D4CBF"/>
</svg>
