<svg width="30" height="31" viewBox="0 0 30 31" fill="none" xmlns="http://www.w3.org/2000/svg">
<g opacity="0.9">
<path d="M9.36914 16.6875L9.46973 16.7354C10.5519 17.2438 11.7428 17.5312 13 17.5312C14.2576 17.5312 15.4531 17.2432 16.5293 16.7354L16.6309 16.6875H17.5996C21.6977 16.6875 25 20.0991 25 24.2754V26.4688C25 28.1295 23.6851 29.4998 22.0361 29.5H3.96387C2.31488 29.4998 1 28.1295 1 26.4688V24.2754C1 20.0991 4.30232 16.6875 8.40039 16.6875H9.36914ZM13 1.5C16.9184 1.5 20.0713 4.75826 20.0713 8.75C20.0713 12.7417 16.9184 16 13 16C9.08162 16 5.92871 12.7417 5.92871 8.75C5.92871 4.75826 9.08162 1.5 13 1.5Z" fill="#2162CD" stroke="white"/>
<path d="M13.3691 16.6875L13.4697 16.7354C14.5519 17.2438 15.7428 17.5312 17 17.5312C18.2576 17.5312 19.4531 17.2432 20.5293 16.7354L20.6309 16.6875H21.5996C25.6977 16.6875 29 20.0991 29 24.2754V26.4688C29 28.1295 27.6851 29.4998 26.0361 29.5H7.96387C6.31488 29.4998 5 28.1295 5 26.4688V24.2754C5 20.0991 8.30232 16.6875 12.4004 16.6875H13.3691ZM17 1.5C20.9184 1.5 24.0713 4.75826 24.0713 8.75C24.0713 12.7417 20.9184 16 17 16C13.0816 16 9.92871 12.7417 9.92871 8.75C9.92871 4.75826 13.0816 1.5 17 1.5Z" fill="#2162CD" stroke="white"/>
</g>
</svg>
