<svg width="36" height="36" viewBox="0 0 36 36" fill="none" xmlns="http://www.w3.org/2000/svg">
<path d="M30.3725 5.62378C27.5092 2.76131 23.7419 0.98023 19.7125 0.584022C15.6832 0.187815 11.6411 1.20099 8.2751 3.45093C4.90905 5.70086 2.42728 9.04832 1.25266 12.9229C0.0780441 16.7976 0.283257 20.9596 1.83333 24.6999C3.38341 28.4402 6.18244 31.5273 9.7535 33.4352C13.3245 35.3431 17.4467 35.9537 21.4175 35.163C25.3883 34.3724 28.9621 32.2293 31.53 29.0991C34.0978 25.9688 35.5009 22.045 35.5 17.9963C35.499 13.3554 33.6546 8.9049 30.3725 5.62378ZM9.425 29.0562C8.49558 28.3356 7.66067 27.5007 6.94 26.5712L26.575 6.93628C27.5044 7.65695 28.3393 8.49185 29.06 9.42128L9.425 29.0562Z" fill="white"/>
</svg>
