<svg width="39" height="38" viewBox="0 0 39 38" fill="none" xmlns="http://www.w3.org/2000/svg">
<g opacity="0.9">
<path fill-rule="evenodd" clip-rule="evenodd" d="M3 19C3 9.88705 10.3871 2.5 19.5 2.5C28.6129 2.5 36 9.88705 36 19C36 28.1129 28.6129 35.5 19.5 35.5C10.3871 35.5 3 28.1129 3 19ZM21.15 10.75C21.15 10.3124 20.9762 9.89271 20.6667 9.58327C20.3573 9.27384 19.9376 9.1 19.5 9.1C19.0624 9.1 18.6427 9.27384 18.3333 9.58327C18.0238 9.89271 17.85 10.3124 17.85 10.75V16.9606C17.85 17.8797 18.106 18.7807 18.5891 19.5626C19.0723 20.3445 19.7637 20.9764 20.5857 21.3875L25.3624 23.7751C25.5569 23.88 25.7705 23.9447 25.9905 23.9655C26.2105 23.9863 26.4324 23.9626 26.6431 23.896C26.8538 23.8294 27.049 23.7211 27.217 23.5776C27.3851 23.4341 27.5226 23.2584 27.6214 23.0607C27.7202 22.8631 27.7783 22.6476 27.7923 22.427C27.8063 22.2065 27.7758 21.9854 27.7027 21.7769C27.6296 21.5684 27.5153 21.3767 27.3667 21.2131C27.2181 21.0496 27.0382 20.9176 26.8376 20.8249L22.0625 18.4357C21.7884 18.2988 21.5579 18.0882 21.3968 17.8277C21.2356 17.5672 21.1502 17.2669 21.15 16.9606V10.75Z" fill="#D45CA4"/>
</g>
</svg>
