<svg width="41" height="40" viewBox="0 0 41 40" fill="none" xmlns="http://www.w3.org/2000/svg">
<g opacity="0.9">
<path d="M14.6611 21L14.8594 21.0908C16.1295 21.6718 17.5259 22 19 22C20.4748 22 21.8767 21.6716 23.1387 21.0918L23.3379 21H24.5996C29.7894 21 34 25.2106 34 30.4004V33C34 35.2085 32.2085 37 30 37H8C5.79147 37 4 35.2085 4 33V30.4004C4 25.2106 8.21061 21 13.4004 21H14.6611ZM19 3C23.971 3 28 7.02897 28 12C28 16.971 23.971 21 19 21C14.029 21 10 16.971 10 12C10 7.02897 14.029 3 19 3Z" fill="#5C7CD4" stroke="white" stroke-width="2"/>
<path d="M17.5527 21.5L17.6514 21.5449C18.9833 22.1541 20.4505 22.5 22 22.5C23.55 22.5 25.0229 22.1546 26.3477 21.5459L26.4473 21.5H27.5996C32.5133 21.5 36.5 25.4867 36.5 30.4004V33C36.5 34.9324 34.9324 36.5 33 36.5H11C9.06761 36.5 7.5 34.9324 7.5 33V30.4004C7.5 25.4867 11.4867 21.5 16.4004 21.5H17.5527ZM22 3.5C26.6949 3.5 30.5 7.30511 30.5 12C30.5 16.6949 26.6949 20.5 22 20.5C17.3051 20.5 13.5 16.6949 13.5 12C13.5 7.30511 17.3051 3.5 22 3.5Z" fill="#5C7CD4" stroke="white"/>
</g>
</svg>
