<svg width="34" height="34" viewBox="0 0 34 34" fill="none" xmlns="http://www.w3.org/2000/svg">
<path fill-rule="evenodd" clip-rule="evenodd" d="M17 0.5C12.6239 0.5 8.42709 2.23839 5.33274 5.33274C2.23839 8.42709 0.5 12.6239 0.5 17C0.5 21.3761 2.23839 25.5729 5.33274 28.6673C8.42709 31.7616 12.6239 33.5 17 33.5C21.3761 33.5 25.5729 31.7616 28.6673 28.6673C31.7616 25.5729 33.5 21.3761 33.5 17C33.5 12.6239 31.7616 8.42709 28.6673 5.33274C25.5729 2.23839 21.3761 0.5 17 0.5ZM22.61 11.2662C22.7516 11.1143 22.9224 10.9924 23.1121 10.9078C23.3019 10.8233 23.5067 10.7778 23.7144 10.7742C23.9221 10.7705 24.1284 10.8087 24.321 10.8865C24.5137 10.9643 24.6886 11.0801 24.8355 11.227C24.9824 11.3739 25.0982 11.5488 25.176 11.7415C25.2538 11.9341 25.292 12.1404 25.2883 12.3481C25.2847 12.5558 25.2392 12.7606 25.1547 12.9504C25.0701 13.1401 24.9482 13.3109 24.7962 13.4525L15.515 22.7337C15.225 23.0234 14.8318 23.1861 14.4219 23.1861C14.012 23.1861 13.6188 23.0234 13.3287 22.7337L9.20375 18.6087C8.93051 18.3155 8.78176 17.9277 8.78883 17.5269C8.7959 17.1262 8.95824 16.7438 9.24165 16.4604C9.52507 16.177 9.90743 16.0146 10.3082 16.0076C10.7089 16.0005 11.0968 16.1493 11.39 16.4225L14.4219 19.4544L22.61 11.2662Z" fill="white"/>
</svg>
