<svg width="20" height="21" viewBox="0 0 20 21" fill="none" xmlns="http://www.w3.org/2000/svg">
<g clip-path="url(#clip0_9968_16051)">
<path d="M6.57163 10.849C6.71818 10.8494 6.86472 10.849 7.01126 10.8488C7.2571 10.8485 7.50293 10.8489 7.74877 10.8496C8.03075 10.8505 8.31272 10.8502 8.5947 10.8493C8.83922 10.8486 9.08374 10.8485 9.32826 10.8489C9.47324 10.8492 9.61822 10.8492 9.76321 10.8487C11.3989 10.8436 12.7736 11.251 13.9843 12.3934C14.0155 12.4217 14.0468 12.4499 14.0789 12.479C14.7584 13.1185 15.2262 13.9992 15.4687 14.8934C15.4768 14.9224 15.485 14.9514 15.4934 14.9812C15.7719 16.0058 15.7234 17.098 15.1974 18.0266C14.7485 18.7877 14.0494 19.3115 13.2 19.5459C12.82 19.6431 12.4454 19.6427 12.0553 19.6407C11.9806 19.6408 11.9058 19.641 11.8311 19.6412C11.6758 19.6414 11.5205 19.6411 11.3653 19.6403C11.1666 19.6395 10.9679 19.64 10.7692 19.6409C10.6155 19.6415 10.4617 19.6413 10.308 19.6409C10.2347 19.6408 10.1614 19.6409 10.0881 19.6413C9.98596 19.6417 9.88387 19.6411 9.78172 19.6402C9.75176 19.6405 9.72181 19.6408 9.69095 19.6412C9.48862 19.638 9.37508 19.5904 9.21869 19.4637C9.07695 19.3145 9.05033 19.1949 9.04291 18.995C9.05033 18.7951 9.07695 18.6754 9.21869 18.5262C9.39607 18.3864 9.51152 18.3504 9.73634 18.3499C9.76369 18.3496 9.79104 18.3493 9.81922 18.349C9.90917 18.3483 9.99909 18.3486 10.089 18.3489C10.1522 18.3485 10.2154 18.3481 10.2785 18.3475C10.4448 18.3463 10.611 18.3459 10.7773 18.3457C11.0422 18.3454 11.3071 18.3439 11.572 18.3421C11.6637 18.3416 11.7553 18.3416 11.847 18.3417C12.5933 18.3398 13.226 18.245 13.785 17.7135C14.2437 17.2309 14.3195 16.671 14.309 16.0354C14.275 15.1058 13.8607 14.211 13.2421 13.5262C13.197 13.4762 13.197 13.4762 13.1509 13.4252C12.3812 12.6156 11.2963 12.2063 10.1952 12.159C9.88557 12.1515 9.57574 12.1526 9.26599 12.1525C9.17566 12.1524 9.08533 12.1522 8.995 12.1521C8.80621 12.1519 8.61743 12.1518 8.42864 12.1518C8.18872 12.1518 7.9488 12.1513 7.70888 12.1506C7.52241 12.1502 7.33593 12.1501 7.14946 12.1501C7.0611 12.1501 6.97275 12.1499 6.8844 12.1496C5.41323 12.145 4.18253 12.3877 3.08343 13.4359C2.31362 14.2274 1.93494 15.2925 1.93886 16.383C1.9484 16.9312 2.13556 17.3672 2.50726 17.7743C3.07435 18.3032 3.74479 18.3358 4.47565 18.3375C4.57027 18.3378 4.66487 18.3384 4.75948 18.3391C5.02818 18.3412 5.29687 18.343 5.56558 18.3436C5.73067 18.344 5.89574 18.3452 6.06082 18.3468C6.12342 18.3473 6.18603 18.3475 6.24864 18.3474C6.33613 18.3473 6.42357 18.3482 6.51105 18.3493C6.58553 18.3496 6.58553 18.3496 6.66151 18.35C6.86539 18.3801 6.98453 18.4771 7.12396 18.6239C7.21763 18.8256 7.21688 19.0106 7.18744 19.2294C7.0973 19.4235 6.98219 19.517 6.79681 19.62C6.68218 19.6348 6.58248 19.6414 6.46815 19.6402C6.43598 19.6405 6.4038 19.6407 6.37065 19.641C6.26458 19.6417 6.15855 19.6413 6.05249 19.6407C5.97812 19.6408 5.90376 19.641 5.8294 19.6412C5.67343 19.6414 5.51746 19.6411 5.36149 19.6403C5.16327 19.6395 4.96508 19.64 4.76686 19.6409C4.6131 19.6415 4.45934 19.6413 4.30557 19.6409C4.2326 19.6408 4.15963 19.6409 4.08667 19.6413C3.51258 19.6435 2.96124 19.5952 2.44622 19.3148C2.42035 19.3012 2.39448 19.2876 2.36783 19.2736C1.61002 18.8671 1.08937 18.2766 0.781181 17.4715C0.765823 17.4338 0.750465 17.396 0.734642 17.3571C0.480995 16.6059 0.568775 15.645 0.781181 14.8934C0.78893 14.8645 0.796678 14.8357 0.804661 14.8059C1.04694 13.9228 1.52417 13.1722 2.14837 12.5106C2.17662 12.4794 2.20487 12.4482 2.23397 12.416C3.38304 11.195 4.96294 10.8432 6.57163 10.849Z" fill="#404252"/>
<path d="M10.8091 1.74133C11.7484 2.47963 12.3253 3.47697 12.5001 4.65893C12.578 6.03689 12.2856 7.20899 11.3571 8.2542C10.655 9.02286 9.62511 9.56004 8.57803 9.62857C8.43266 9.63313 8.28768 9.63471 8.14223 9.63451C8.10361 9.63448 8.10361 9.63448 8.06421 9.63444C7.63526 9.63282 7.24402 9.59583 6.83608 9.46361C6.80945 9.45524 6.78283 9.44687 6.7554 9.43824C6.19961 9.25924 5.71553 8.98755 5.27358 8.60424C5.24201 8.5783 5.21043 8.55237 5.17791 8.52565C4.52674 7.97263 4.10651 7.22875 3.86733 6.41674C3.85403 6.37353 3.84074 6.33033 3.82704 6.28582C3.5519 5.19796 3.75071 3.9905 4.3022 3.02425C4.91986 1.99873 5.8423 1.32652 6.97844 0.980189C8.31489 0.651912 9.71386 0.902753 10.8091 1.74133ZM6.13295 2.86205C6.10697 2.8824 6.08099 2.90274 6.05422 2.9237C5.50393 3.37 5.12556 4.0746 5.0392 4.77611C4.97043 5.64223 5.12023 6.48204 5.6848 7.17006C5.70379 7.19217 5.72277 7.21427 5.74233 7.23705C5.76171 7.26198 5.7811 7.2869 5.80107 7.31258C6.31588 7.94896 7.10741 8.27468 7.90297 8.36254C8.75629 8.41195 9.5774 8.1172 10.2176 7.55736C10.7514 7.07103 11.1668 6.34716 11.218 5.61468C11.2381 4.73401 11.099 3.94097 10.508 3.25268C10.4886 3.22775 10.4692 3.20283 10.4492 3.17715C9.9344 2.54077 9.14288 2.21504 8.34731 2.12719C7.53836 2.08035 6.74963 2.33811 6.13295 2.86205Z" fill="#404252"/>
<path d="M15.1171 11.5089C15.1566 11.5092 15.1961 11.5095 15.2368 11.5098C15.4181 11.4852 15.5409 11.4011 15.6542 11.2598C15.772 11.1029 15.7863 10.9935 15.794 10.8001C15.7641 10.5969 15.6469 10.4467 15.5102 10.3004C15.4794 10.2671 15.4487 10.2338 15.417 10.1995C15.3825 10.1627 15.348 10.1259 15.3124 10.088C15.2515 10.0223 15.1907 9.95659 15.1299 9.89082C15.0899 9.84763 15.0499 9.80451 15.0097 9.76148C14.991 9.74132 14.9722 9.72115 14.9529 9.70038C14.9284 9.67404 14.9284 9.67404 14.9033 9.64716C14.8483 9.58534 14.7952 9.5224 14.7423 9.45876C14.6958 9.40283 14.6958 9.40283 14.6484 9.34577C14.6705 9.34571 14.6926 9.34565 14.7154 9.34559C15.2544 9.34414 15.7933 9.34183 16.3322 9.33858C16.5929 9.33704 16.8535 9.33578 17.1141 9.33518C17.3656 9.33459 17.6171 9.33324 17.8686 9.33138C17.9646 9.3308 18.0606 9.33049 18.1565 9.33046C18.2909 9.33037 18.4253 9.32931 18.5597 9.32803C18.5994 9.32822 18.6391 9.32842 18.68 9.32862C18.9057 9.32529 19.0407 9.30343 19.2187 9.15045C19.3604 9.00126 19.387 8.88159 19.3945 8.6817C19.387 8.48181 19.3604 8.36214 19.2187 8.21295C19.0067 8.03072 18.8263 8.03406 18.5597 8.03538C18.4962 8.03477 18.4962 8.03477 18.4314 8.03416C18.2919 8.03301 18.1524 8.03295 18.0129 8.0329C17.9161 8.03231 17.8192 8.03166 17.7223 8.03094C17.4676 8.02924 17.2129 8.02846 16.9582 8.02787C16.6982 8.02719 16.4382 8.02546 16.1782 8.0239C15.6683 8.02096 15.1583 8.01896 14.6484 8.01764C14.7173 7.94237 14.7863 7.86711 14.8552 7.79185C14.8747 7.77064 14.8941 7.74944 14.9141 7.72759C15.011 7.62189 15.108 7.51637 15.2058 7.41156C15.7955 6.77745 15.7955 6.77745 15.7896 6.41822C15.7663 6.19587 15.6308 6.0501 15.4687 5.90827C15.2402 5.8321 15.0046 5.83779 14.7802 5.92292C14.6288 6.02562 14.5137 6.16537 14.3948 6.30286C14.2889 6.42523 14.1799 6.5441 14.0698 6.66266C14.0297 6.70599 13.9896 6.74933 13.9495 6.79267C13.9295 6.81434 13.9094 6.83602 13.8887 6.85836C13.6024 7.16776 13.3163 7.47741 13.0319 7.78861C12.9639 7.86295 12.8958 7.93711 12.8274 8.01108C12.7801 8.06267 12.7801 8.06267 12.7319 8.1153C12.704 8.14551 12.6762 8.17572 12.6475 8.20685C12.5189 8.36288 12.4879 8.4742 12.4853 8.67682C12.4842 8.7162 12.4831 8.75557 12.4819 8.79614C12.5218 9.062 12.7384 9.24657 12.9174 9.43366C12.9667 9.48582 13.016 9.538 13.0653 9.59021C13.0891 9.61535 13.1128 9.64049 13.1373 9.66639C13.2208 9.75527 13.3025 9.84565 13.3837 9.93659C13.5151 10.0835 13.6479 10.2289 13.7817 10.3736C13.8013 10.3948 13.8209 10.416 13.8411 10.4379C13.9441 10.5493 14.0473 10.6606 14.1506 10.7719C14.1714 10.7943 14.1922 10.8167 14.2137 10.8399C14.2531 10.8824 14.2926 10.9249 14.3321 10.9673C14.4224 11.0648 14.5087 11.163 14.5912 11.2673C14.7519 11.4504 14.8737 11.5107 15.1171 11.5089Z" fill="#404252"/>
</g>
<defs>
<clipPath id="clip0_9968_16051">
<rect width="20" height="20" fill="white" transform="translate(0 0.245117)"/>
</clipPath>
</defs>
</svg>
