<?xml version="1.0" encoding="UTF-8"?>
<svg version="1.1" xmlns="http://www.w3.org/2000/svg" width="512" height="512">
<path d="M0 0 C7.88198556 6.51457072 10.68753038 16.49539293 13.78515625 25.8671875 C14.26917767 27.30553153 14.75386051 28.74365313 15.23916626 30.18156433 C16.24808326 33.18166613 17.24684556 36.18491284 18.23876953 39.19067383 C19.50164788 43.01376764 20.79281836 46.82659819 22.09226036 50.63739491 C23.09855782 53.60085809 24.08778147 56.56981717 25.07234573 59.54056358 C25.54120999 60.94761178 26.01554859 62.35284965 26.49580002 63.75605202 C29.77429092 73.37047935 32.94807751 83.50087124 28.82421875 93.34765625 C25.47332339 99.05130793 20.63357303 102.90259295 14.38671875 104.97265625 C11.93065064 105.16958407 9.46508961 105.2590239 7.0012207 105.27905273 C6.27528214 105.28737625 5.54934357 105.29569977 4.80140686 105.30427551 C2.40921606 105.32830414 0.01729857 105.33714031 -2.375 105.34375 C-4.04783709 105.35272426 -5.72067339 105.36184625 -7.39350891 105.37110901 C-10.89964747 105.38758395 -14.40569074 105.39529595 -17.91186523 105.39819336 C-22.38280496 105.40356477 -26.85283587 105.44119908 -31.32351971 105.48693752 C-34.78016848 105.51683432 -38.23660215 105.52391969 -41.69336891 105.52491951 C-43.3402604 105.52909957 -44.98715386 105.54144403 -46.63391685 105.56243706 C-55.70751048 105.66886794 -64.04578064 105.73977064 -71.61328125 99.97265625 C-77.36443497 93.86522472 -77.90872415 88.20949528 -77.828125 80.140625 C-77.46928422 74.84935457 -75.62640112 72.14574241 -72.23828125 68.22265625 C-69.71331423 66.05839881 -67.76010271 64.96165728 -64.61328125 63.97265625 C-64.61328125 63.31265625 -64.61328125 62.65265625 -64.61328125 61.97265625 C-65.47824219 61.70839844 -66.34320313 61.44414063 -67.234375 61.171875 C-70.60769562 59.97463867 -73.53110837 58.48803363 -76.67578125 56.78515625 C-111.26618787 38.90696856 -151.79992342 37.86001951 -188.5078125 49.25 C-207.20751398 55.37960175 -223.82551034 65.00740313 -238.61328125 77.97265625 C-239.42925781 78.65585938 -240.24523437 79.3390625 -241.0859375 80.04296875 C-269.99157278 104.87158098 -286.63438319 142.32647146 -289.61328125 179.97265625 C-291.67066996 222.07249522 -277.18231272 261.12495587 -249.05078125 292.41015625 C-243.95494726 297.80488752 -238.54419526 302.52040847 -232.61328125 306.97265625 C-231.65164062 307.6996875 -230.69 308.42671875 -229.69921875 309.17578125 C-209.29985785 323.94595142 -185.61269848 333.62786686 -160.61328125 336.97265625 C-159.67097656 337.1015625 -158.72867188 337.23046875 -157.7578125 337.36328125 C-122.29918773 341.34386542 -84.01058863 331.68068167 -55.17578125 310.53515625 C-53.30526079 309.03448265 -51.45157329 307.51264015 -49.61328125 305.97265625 C-48.47711532 305.06050889 -47.3403662 304.14908763 -46.203125 303.23828125 C-17.53992127 279.89874758 0.43747654 245.4740938 5.38671875 208.97265625 C5.89698864 203.50702476 6.28378888 198.0333341 6.52807617 192.54931641 C6.97803084 184.58364246 8.4847691 178.9405593 14.13671875 173.16015625 C20.07469085 169.16344426 26.0983894 166.76479753 33.38671875 167.97265625 C40.86532218 170.1130402 45.49929836 174.11991635 49.44018555 180.74316406 C58.55991266 202.22403792 46.41789349 239.62925966 38.3515625 260.31640625 C18.27125954 309.71575244 -18.89624194 347.28562293 -67.65527344 368.74023438 C-108.58373128 385.79263246 -155.25693965 387.66037643 -197.61328125 374.97265625 C-198.31791504 374.76302246 -199.02254883 374.55338867 -199.74853516 374.33740234 C-223.87990209 366.94955279 -246.52341883 354.46548791 -265.61328125 337.97265625 C-266.40476562 337.29074219 -267.19625 336.60882813 -268.01171875 335.90625 C-270.58663075 333.63594116 -273.10691772 331.31840334 -275.61328125 328.97265625 C-277.01900391 327.66554688 -277.01900391 327.66554688 -278.453125 326.33203125 C-306.66470621 299.49502825 -324.92818702 262.10529239 -331.61328125 223.97265625 C-331.78988281 222.99329102 -331.96648437 222.01392578 -332.1484375 221.00488281 C-333.80124673 210.86076618 -334.01324987 200.85614136 -333.98828125 190.59765625 C-333.98740509 189.7165921 -333.98652893 188.83552795 -333.98562622 187.92776489 C-333.88958332 158.57884805 -327.61608798 131.35149843 -314.61328125 104.97265625 C-314.26007813 104.24852539 -313.906875 103.52439453 -313.54296875 102.77832031 C-302.50135515 80.36741932 -286.22512389 58.62679371 -266.61328125 42.97265625 C-265.66066406 42.20566406 -264.70804687 41.43867187 -263.7265625 40.6484375 C-221.69780146 7.2983343 -170.02741402 -7.11468033 -116.71044922 -1.25366211 C-86.79682234 2.69766055 -58.93669483 13.74046816 -33.61328125 29.97265625 C-33.94328125 29.16828125 -34.27328125 28.36390625 -34.61328125 27.53515625 C-36.63235331 20.34221205 -36.24028345 13.58830827 -32.61328125 6.97265625 C-23.61947854 -3.7226767 -12.42616137 -5.88607644 0 0 Z " fill="#000000" transform="translate(397.61328125,66.02734375)"/>
</svg>
