<svg width="36" height="36" viewBox="0 0 36 36" fill="none" xmlns="http://www.w3.org/2000/svg">
<g opacity="0.9">
<path d="M17.75 18C22.1688 18 25.75 14.4187 25.75 10C25.75 5.58125 22.1688 2 17.75 2C13.3313 2 9.75 5.58125 9.75 10C9.75 14.4187 13.3313 18 17.75 18ZM23.35 20H22.3062C20.9187 20.6375 19.375 21 17.75 21C16.125 21 14.5875 20.6375 13.1938 20H12.15C7.5125 20 3.75 23.7625 3.75 28.4V31C3.75 32.6562 5.09375 34 6.75 34H28.75C30.4062 34 31.75 32.6562 31.75 31V28.4C31.75 23.7625 27.9875 20 23.35 20Z" fill="#25B27A"/>
</g>
</svg>
