<svg width="20" height="20" viewBox="0 0 20 20" fill="none" xmlns="http://www.w3.org/2000/svg">
<path d="M16.875 3.75V7.5C16.875 7.66576 16.8092 7.82473 16.6919 7.94194C16.5747 8.05915 16.4158 8.125 16.25 8.125C16.0842 8.125 15.9253 8.05915 15.8081 7.94194C15.6908 7.82473 15.625 7.66576 15.625 7.5V5.25859L12.3172 8.56719C12.1999 8.68446 12.0409 8.75035 11.875 8.75035C11.7091 8.75035 11.5501 8.68446 11.4328 8.56719C11.3155 8.44991 11.2497 8.29085 11.2497 8.125C11.2497 7.95915 11.3155 7.80009 11.4328 7.68281L14.7414 4.375H12.5C12.3342 4.375 12.1753 4.30915 12.0581 4.19194C11.9408 4.07473 11.875 3.91576 11.875 3.75C11.875 3.58424 11.9408 3.42527 12.0581 3.30806C12.1753 3.19085 12.3342 3.125 12.5 3.125H16.25C16.4158 3.125 16.5747 3.19085 16.6919 3.30806C16.8092 3.42527 16.875 3.58424 16.875 3.75ZM7.68281 11.4328L4.375 14.7414V12.5C4.375 12.3342 4.30915 12.1753 4.19194 12.0581C4.07473 11.9408 3.91576 11.875 3.75 11.875C3.58424 11.875 3.42527 11.9408 3.30806 12.0581C3.19085 12.1753 3.125 12.3342 3.125 12.5V16.25C3.125 16.4158 3.19085 16.5747 3.30806 16.6919C3.42527 16.8092 3.58424 16.875 3.75 16.875H7.5C7.66576 16.875 7.82473 16.8092 7.94194 16.6919C8.05915 16.5747 8.125 16.4158 8.125 16.25C8.125 16.0842 8.05915 15.9253 7.94194 15.8081C7.82473 15.6908 7.66576 15.625 7.5 15.625H5.25859L8.56719 12.3172C8.68446 12.1999 8.75035 12.0409 8.75035 11.875C8.75035 11.7091 8.68446 11.5501 8.56719 11.4328C8.44991 11.3155 8.29085 11.2497 8.125 11.2497C7.95915 11.2497 7.80009 11.3155 7.68281 11.4328ZM16.25 11.875C16.0842 11.875 15.9253 11.9408 15.8081 12.0581C15.6908 12.1753 15.625 12.3342 15.625 12.5V14.7414L12.3172 11.4328C12.1999 11.3155 12.0409 11.2497 11.875 11.2497C11.7091 11.2497 11.5501 11.3155 11.4328 11.4328C11.3155 11.5501 11.2497 11.7091 11.2497 11.875C11.2497 12.0409 11.3155 12.1999 11.4328 12.3172L14.7414 15.625H12.5C12.3342 15.625 12.1753 15.6908 12.0581 15.8081C11.9408 15.9253 11.875 16.0842 11.875 16.25C11.875 16.4158 11.9408 16.5747 12.0581 16.6919C12.1753 16.8092 12.3342 16.875 12.5 16.875H16.25C16.4158 16.875 16.5747 16.8092 16.6919 16.6919C16.8092 16.5747 16.875 16.4158 16.875 16.25V12.5C16.875 12.3342 16.8092 12.1753 16.6919 12.0581C16.5747 11.9408 16.4158 11.875 16.25 11.875ZM5.25859 4.375H7.5C7.66576 4.375 7.82473 4.30915 7.94194 4.19194C8.05915 4.07473 8.125 3.91576 8.125 3.75C8.125 3.58424 8.05915 3.42527 7.94194 3.30806C7.82473 3.19085 7.66576 3.125 7.5 3.125H3.75C3.58424 3.125 3.42527 3.19085 3.30806 3.30806C3.19085 3.42527 3.125 3.58424 3.125 3.75V7.5C3.125 7.66576 3.19085 7.82473 3.30806 7.94194C3.42527 8.05915 3.58424 8.125 3.75 8.125C3.91576 8.125 4.07473 8.05915 4.19194 7.94194C4.30915 7.82473 4.375 7.66576 4.375 7.5V5.25859L7.68281 8.56719C7.80009 8.68446 7.95915 8.75035 8.125 8.75035C8.29085 8.75035 8.44991 8.68446 8.56719 8.56719C8.68446 8.44991 8.75035 8.29085 8.75035 8.125C8.75035 7.95915 8.68446 7.80009 8.56719 7.68281L5.25859 4.375Z" fill="#343330"/>
</svg>
